<svg width="128" height="56" viewBox="0 0 128 56" fill="none" xmlns="http://www.w3.org/2000/svg">
<g clip-path="url(#clip0_159_31)">
<path fill-rule="evenodd" clip-rule="evenodd" d="M39.4375 33.6875C36.025 33.6875 34 31.1375 34 27.5375C34 23.975 36.0625 21.35 39.4375 21.35C42.4 21.35 44.2 23 44.5375 25.5125H42.1375C41.8375 24.0875 40.9 23.1875 39.475 23.1875H39.325C37.4875 23.1875 36.3625 25.0625 36.3625 27.5375C36.3625 29.975 37.4875 31.85 39.325 31.85H39.475C41.05 31.85 41.95 30.725 42.1375 29.5625H44.5375C44.35 31.8125 42.625 33.6875 39.4375 33.6875Z" fill="white" style="fill:white;fill-opacity:1;"/>
<path fill-rule="evenodd" clip-rule="evenodd" d="M49.5625 29.75L49 29.9C48.5875 30.0125 48.25 30.125 48.025 30.35C47.8375 30.5 47.725 30.7625 47.725 31.0625C47.725 31.3625 47.8375 31.5875 47.9875 31.7375C48.2125 31.9625 48.5125 32.075 48.8875 32.075C49.7875 32.075 50.9125 31.475 50.9125 29.8625V28.8125C50.6875 29.375 50.125 29.6375 49.5625 29.75ZM53.0125 27.8V31.175C53.0125 31.5875 53.05 31.7 53.4625 31.7C53.6125 31.7 53.7625 31.7 53.875 31.6625V33.4625C53.875 33.4625 53.1625 33.575 52.6 33.575C51.625 33.575 51.25 33.125 51.25 32.225V32.15L51.025 32.1125C50.5375 33.2 49.2625 33.6875 48.2125 33.6875C47.5 33.6875 46.8625 33.5 46.375 33.125C45.8125 32.7125 45.475 32.075 45.475 31.2125C45.475 30.3875 45.8125 29.7125 46.4125 29.2625C46.9 28.925 47.5375 28.7 48.3625 28.5875L49 28.475C50.125 28.325 50.8 28.1 50.8 27.3875C50.8 26.75 50.275 26.4125 49.4125 26.4125C48.55 26.4125 47.95 26.9 47.875 27.8H45.6625C45.7 25.925 47.2 24.8375 49.4125 24.8375C51.7 24.8375 53.0125 25.625 53.0125 27.8Z" fill="white" style="fill:white;fill-opacity:1;"/>
<path fill-rule="evenodd" clip-rule="evenodd" d="M58.7125 27.0875C57.625 27.0875 56.95 27.6125 56.95 29V33.2H54.7V24.875H56.875V25.175C56.875 25.625 56.8375 25.8875 56.65 26.375L56.9125 26.45C57.3625 25.0625 58.225 24.8 59.5375 24.8C59.6875 24.8 59.875 24.8 59.95 24.8V27.2C59.575 27.1625 59.0875 27.0875 58.7125 27.0875Z" fill="white" style="fill:white;fill-opacity:1;"/>
<path fill-rule="evenodd" clip-rule="evenodd" d="M67.9 23.1875H64.4125V33.2375H62.125V23.1875H58.675V21.3125H67.9V23.1875Z" fill="white" style="fill:white;fill-opacity:1;"/>
<path fill-rule="evenodd" clip-rule="evenodd" d="M70.15 27.0875C69.0625 27.0875 68.3875 27.6125 68.3875 29V33.2H66.1375V24.875H68.3125V25.175C68.3125 25.625 68.275 25.8875 68.0875 26.375L68.35 26.45C68.8 25.0625 69.6625 24.8 70.975 24.8C71.125 24.8 71.3125 24.8 71.3875 24.8V27.2C71.0125 27.1625 70.525 27.0875 70.15 27.0875Z" fill="white" style="fill:white;fill-opacity:1;"/>
<path fill-rule="evenodd" clip-rule="evenodd" d="M76.375 29.7501L75.8125 29.9001C75.4 30.0126 75.0625 30.1251 74.8375 30.3501C74.65 30.5001 74.5375 30.7626 74.5375 31.0626C74.5375 31.3626 74.65 31.5876 74.8 31.7376C75.025 31.9626 75.325 32.0751 75.7 32.0751C76.6 32.0751 77.725 31.4751 77.725 29.8626V28.8126C77.5 29.3751 76.9375 29.6376 76.375 29.7501ZM79.825 27.8001V31.1751C79.825 31.5876 79.8625 31.7001 80.275 31.7001C80.425 31.7001 80.575 31.7001 80.6875 31.6626V33.4626C80.6875 33.4626 79.975 33.5751 79.4125 33.5751C78.4375 33.5751 78.0625 33.1251 78.0625 32.2251V32.1501L77.8375 32.1126C77.35 33.2001 76.075 33.6876 75.025 33.6876C74.35 33.6876 73.7125 33.5001 73.225 33.1251C72.6625 32.7126 72.325 32.0751 72.325 31.2126C72.325 30.3876 72.6625 29.7126 73.2625 29.2626C73.75 28.9251 74.3875 28.7001 75.2125 28.5876L75.8875 28.5126C77.0125 28.3626 77.6875 28.1376 77.6875 27.4251C77.6875 26.7876 77.1625 26.4501 76.3 26.4501C75.4375 26.4501 74.8375 26.9376 74.7625 27.8376H72.55C72.5875 25.9626 74.0875 24.8751 76.3 24.8751C78.55 24.8376 79.825 25.6251 79.825 27.8001Z" fill="white" style="fill:white;fill-opacity:1;"/>
<path fill-rule="evenodd" clip-rule="evenodd" d="M93.4 24.8375L90.9625 33.2375H88.45L87.55 29.5625C87.3625 28.775 87.25 28.025 87.175 27.3125H86.9125C86.875 28.0625 86.725 28.775 86.5375 29.5625L85.6375 33.2375H83.0875L80.65 24.8375H82.9375L84.0625 28.8125C84.25 29.525 84.3625 30.2375 84.4 30.95H84.6625C84.7375 30.275 84.8875 29.525 85.075 28.8125L86.0125 24.8375H88.1125L89.0125 28.8875C89.1625 29.5625 89.35 30.35 89.425 30.95H89.6875C89.725 30.3125 89.8375 29.525 90.0625 28.8125L91.15 24.8375H93.4Z" fill="white" style="fill:white;fill-opacity:1;"/>
<path fill-rule="evenodd" clip-rule="evenodd" d="M94.7125 33.2375H96.925V20.9H94.7125V33.2375Z" fill="white" style="fill:white;fill-opacity:1;"/>
<path fill-rule="evenodd" clip-rule="evenodd" d="M103.825 28.325C103.713 27.275 103.113 26.4125 102.025 26.4125H101.875C100.788 26.4125 100.075 27.275 100 28.325H103.825ZM105.963 29.3V29.7125L100 29.75V29.7875C100.038 31.025 100.825 31.925 102.025 31.925H102.1C103.075 31.925 103.788 31.25 103.9 30.5375H106.15C105.85 32.375 104.125 33.65 101.988 33.65C99.3625 33.65 97.7875 31.85 97.7875 29.2625C97.7875 26.525 99.475 24.8375 101.913 24.8375C104.388 24.8375 105.963 26.5625 105.963 29.3Z" fill="white" style="fill:white;fill-opacity:1;"/>
<path fill-rule="evenodd" clip-rule="evenodd" d="M111.475 27.0875C110.387 27.0875 109.712 27.6125 109.712 29V33.2H107.462V24.875H109.637V25.175C109.637 25.625 109.6 25.8875 109.412 26.375L109.675 26.45C110.125 25.0625 110.987 24.8 112.3 24.8C112.45 24.8 112.637 24.8 112.712 24.8V27.2C112.337 27.1625 111.887 27.0875 111.475 27.0875Z" fill="white" style="fill:white;fill-opacity:1;"/>
<path fill-rule="evenodd" clip-rule="evenodd" d="M17.2 27.725L18.2125 26.7125C18.4375 26.4875 18.775 26.3375 19.075 26.3375H21.475C21.9625 26.3375 22.3375 25.925 22.3375 25.475V23.075C22.3375 22.7375 22.45 22.4375 22.7125 22.2125L23.725 21.2C23.9875 20.9375 24.025 20.4875 23.7625 20.225C23.5 19.925 23.05 19.925 22.75 20.225L21.7375 21.2375C21.5125 21.4625 21.175 21.6125 20.875 21.6125H18.475C17.9875 21.6125 17.6125 22.025 17.6125 22.475V22.6625V24.875C17.6125 25.2125 17.5 25.5125 17.2375 25.7375L16.225 26.75C15.9625 27.0125 15.925 27.4625 16.1875 27.725C16.45 28.025 16.9 28.025 17.2 27.725Z" fill="white" style="fill:white;fill-opacity:1;"/>
<path fill-rule="evenodd" clip-rule="evenodd" d="M29.7625 26.825L28.75 27.8375C28.525 28.0625 28.1875 28.2125 27.8875 28.2125H25.4875C25 28.2125 24.625 28.5875 24.625 29.075V29.2625V31.475C24.625 31.8125 24.5125 32.1125 24.25 32.3375L23.2375 33.35C22.975 33.6125 22.9375 34.0625 23.2 34.325C23.4625 34.625 23.9125 34.625 24.2125 34.325L25.225 33.3125C25.45 33.0875 25.7875 32.9375 26.0875 32.9375H28.4875C28.975 32.9375 29.35 32.525 29.35 32.075V29.7125C29.35 29.375 29.4625 29.075 29.725 28.85L30.7375 27.8375C31 27.5375 31.0375 27.125 30.775 26.825C30.5125 26.5625 30.0625 26.5625 29.7625 26.825Z" fill="white" style="fill:white;fill-opacity:1;"/>
<path fill-rule="evenodd" clip-rule="evenodd" d="M25.975 26.4875H28.4125C28.9 26.4875 29.3125 26.075 29.3125 25.5875V23.1125C29.3125 22.775 29.4625 22.475 29.6875 22.2125L30.7 21.2C30.9625 20.9375 31 20.4875 30.7375 20.1875C30.475 19.8875 29.9875 19.8875 29.725 20.1875L28.675 21.2375C28.45 21.4625 28.1125 21.6125 27.775 21.6125H25.375C24.8875 21.6125 24.475 22.025 24.475 22.5125V22.7V24.95C24.475 25.2875 24.325 25.5875 24.1 25.85L21.85 28.1C21.625 28.325 21.2875 28.475 20.95 28.475H18.5125C18.025 28.475 17.6125 28.8875 17.6125 29.375V29.5625V31.8125C17.6125 32.15 17.4625 32.45 17.2375 32.7125L16.225 33.725C15.9625 33.9875 15.925 34.4375 16.1875 34.7375C16.45 35.0375 16.9375 35.0375 17.2 34.7375L18.25 33.6875C18.475 33.4625 18.8125 33.3125 19.15 33.3125H21.5875C22.075 33.3125 22.4875 32.9 22.4875 32.4125V30.0125C22.4875 29.675 22.6375 29.375 22.8625 29.1125L25.1125 26.8625C25.3375 26.6375 25.675 26.4875 25.975 26.4875Z" fill="white" style="fill:white;fill-opacity:1;"/>
</g>
<defs>
<clipPath id="clip0_159_31">
<rect width="96.75" height="15" fill="white" style="fill:white;fill-opacity:1;" transform="translate(16 20)"/>
</clipPath>
</defs>
</svg>
