<svg width="128" height="56" viewBox="0 0 128 56" fill="none" xmlns="http://www.w3.org/2000/svg">
<g clip-path="url(#clip0_155_19)">
<path d="M90.4072 26.4276C91.8228 26.4276 92.3064 27.5812 92.4944 28.4457H88.3224C88.5448 27.2662 89.2532 26.4276 90.4072 26.4276ZM90.7992 32.1379C89.4688 32.1379 88.5816 31.2765 88.324 30.0579H94.3828C94.3828 30.0579 94.4308 29.7535 94.4308 29.3799C94.4308 26.7427 93.1 24.8167 90.4072 24.8167C87.9288 24.8167 86.3312 26.8685 86.3312 29.2958C86.3312 31.7233 87.7256 33.7751 90.6904 33.7751C92.9812 33.7751 94.4452 32.3387 94.4452 32.3387L93.4692 31.0324C93.4692 31.0324 92.3332 32.1379 90.7992 32.1379ZM95.8848 33.5837H97.8992V22.0216H95.8848V33.5837ZM84.3112 21.8419C85.156 21.8419 86.1264 22.0652 86.1264 22.0652V23.7765C85.4292 23.5164 83.4888 22.9735 83.4888 24.6235V24.9923H86.1264V26.6515H83.4888V33.5837H81.4748V24.434C81.4748 21.9218 83.4656 21.8419 84.3112 21.8419ZM78.5956 21.8419C79.4408 21.8419 80.4108 22.0652 80.4108 22.0652V23.7765C79.7136 23.5164 77.7736 22.9735 77.7736 24.6235V24.9923H80.4108V26.6515H77.7736V33.5837H75.7592V26.6515H74.2704V24.9923H75.7592V24.434C75.7592 21.9218 77.7504 21.8419 78.5956 21.8419ZM71.082 24.9918H73.0964V33.5832H71.082V32.4067C70.596 32.9804 69.6927 33.7587 68.3656 33.7587C66.2643 33.7587 65.1984 32.2914 65.1984 30.6042C65.1984 28.9168 65.1984 24.9918 65.1984 24.9918H67.2128C67.2128 24.9918 67.2128 29.1046 67.2128 30.0298C67.2128 30.9551 67.6641 31.9199 69.0994 31.9199C70.0392 31.9199 70.6856 31.324 71.082 30.5825V24.9918ZM58.1928 31.7128H55.6553V24.2871H58.1928C60.2433 24.2871 61.7377 25.9495 61.7377 28.0001C61.7377 30.0507 60.2433 31.7128 58.1928 31.7128ZM58.1931 22.4169H53.6094V33.5844H58.1931C61.2768 33.5844 63.7767 31.0844 63.7767 28.0007C63.7767 24.9168 61.2768 22.4169 58.1931 22.4169Z" fill="white" style="fill:white;fill-opacity:1;"/>
<path d="M30 24.0001V32.0001C31.1046 32.0001 32 30.2092 32 28C32 25.791 31.1046 24.0001 30 24.0001ZM33.8047 22.4156V33.5832C36.0138 33.5832 37.8048 31.0832 37.8048 27.9994C37.8048 24.9155 36.0138 22.4156 33.8047 22.4156ZM47.6094 28C47.6094 32.4183 44.0277 36 39.6094 36V20C44.0277 20 47.6094 23.5818 47.6094 28Z" fill="white" style="fill:white;fill-opacity:1;"/>
</g>
<defs>
<clipPath id="clip0_155_19">
<rect width="68" height="16" fill="white" style="fill:white;fill-opacity:1;" transform="translate(30 20)"/>
</clipPath>
</defs>
</svg>
