<svg width="128" height="56" viewBox="0 0 128 56" fill="none" xmlns="http://www.w3.org/2000/svg">
<g clip-path="url(#clip0_4836_50)">
<path fill-rule="evenodd" clip-rule="evenodd" d="M45.5489 33.4355C48.5369 33.4355 50.9593 31.0132 50.9593 28.0251C50.9593 25.0371 48.5369 22.6147 45.5489 22.6147C42.5608 22.6147 40.1385 25.0371 40.1385 28.0251C40.1385 31.0132 42.5608 33.4355 45.5489 33.4355ZM45.5489 36.1407C50.0309 36.1407 53.6645 32.5072 53.6645 28.0251C53.6645 23.543 50.0309 19.9095 45.5489 19.9095C41.0668 19.9095 37.4333 23.543 37.4333 28.0251C37.4333 32.5072 41.0668 36.1407 45.5489 36.1407Z" fill="white"/>
<path fill-rule="evenodd" clip-rule="evenodd" d="M42.8437 30.7303C44.3377 30.7303 45.5489 29.5192 45.5489 28.0251C45.5489 26.5311 44.3377 25.3199 42.8437 25.3199C41.3496 25.3199 40.1385 26.5311 40.1385 28.0251C40.1385 29.5192 41.3496 30.7303 42.8437 30.7303ZM42.8437 33.4355C45.8317 33.4355 48.254 31.0132 48.254 28.0251C48.254 25.0371 45.8317 22.6147 42.8437 22.6147C39.8556 22.6147 37.4333 25.0371 37.4333 28.0251C37.4333 31.0132 39.8556 33.4355 42.8437 33.4355Z" fill="white"/>
<g filter="url(#filter0_f_4836_50)">
<path d="M42.8437 25.3199C41.3496 25.3199 40.1385 26.5311 40.1385 28.0251H37.4333C37.4333 25.0371 39.8556 22.6147 42.8437 22.6147C44.0886 22.6147 45.2353 23.0352 46.1496 23.7419L42.8437 25.3199Z" fill="black" fill-opacity="0.2"/>
</g>
<g filter="url(#filter1_f_4836_50)">
<path d="M40.1385 28.0251C40.1385 31.0132 42.5608 33.4355 45.5489 33.4355L43.7454 34.7881H41.0612C38.7859 32.9847 37.4333 30.848 37.4333 28.0251H40.1385Z" fill="black" fill-opacity="0.2"/>
</g>
<path d="M45.5489 22.6147C42.5608 22.6147 40.1385 25.0371 40.1385 28.0251H37.4333C37.4333 23.543 41.0668 19.9095 45.5489 19.9095V22.6147Z" fill="white"/>
<path d="M42.8437 30.7303C44.3377 30.7303 45.5489 29.5192 45.5489 28.0251H48.254C48.254 31.0132 45.8317 33.4355 42.8437 33.4355C39.8556 33.4355 37.4333 31.0132 37.4333 28.0251H40.1385C40.1385 29.5192 41.3496 30.7303 42.8437 30.7303Z" fill="white"/>
<path d="M64.5229 32.8716H67.8151V23.2017C67.8151 21.3835 66.3411 19.9095 64.5229 19.9095V32.8716Z" fill="white"/>
<path d="M55.4678 29.9911C55.8794 31.8634 57.1139 33.0774 59.8917 33.0774C62.5666 33.0774 64.0069 31.6371 64.0069 29.9911C64.0069 27.7965 61.8578 27.2478 60.4252 26.8821C59.7088 26.6992 59.1715 26.562 59.1715 26.2877C59.1715 25.9379 59.4185 25.7733 59.8917 25.7733C60.3032 25.7733 60.509 25.9585 60.653 26.1437C60.7147 26.2465 60.7764 26.37 60.8176 26.4934L63.9039 26.1848C63.4925 24.436 62.2374 23.2015 59.5831 23.2015C57.1139 23.2015 55.6736 24.6417 55.6736 26.1848C55.6736 28.2996 57.7999 28.8763 59.2325 29.2648C59.9603 29.4622 60.509 29.611 60.509 29.8883C60.509 30.1969 60.2209 30.5055 59.5831 30.5055C59.1715 30.5055 58.904 30.3203 58.7601 30.094C58.6571 29.9706 58.5954 29.8265 58.5542 29.6825L55.4678 29.9911Z" fill="white"/>
<path d="M72.136 32.8716H68.8439V23.4164C69.156 23.5681 69.7884 23.6718 70.5177 23.6718C71.206 23.6718 71.8081 23.5794 72.136 23.4415V32.8716Z" fill="white"/>
<path d="M73.1636 32.8716H76.4558V27.9337C76.4558 26.8844 77.073 26.2877 77.8961 26.2877C78.7191 26.2877 79.3363 26.8844 79.3363 27.9337V32.8716H82.6286V27.3164C82.6286 24.7446 81.0647 23.2015 78.822 23.2015C77.9372 23.2015 77.2582 23.469 76.785 23.7776C76.5174 23.9422 76.2706 24.1273 76.0442 24.3331C75.7267 23.7616 75.1244 23.4072 74.4707 23.4072H73.1636V32.8716Z" fill="white"/>
<path fill-rule="evenodd" clip-rule="evenodd" d="M84.256 34.4947C83.865 34.0215 83.5769 33.4661 83.3918 32.8488L86.6839 32.5402C86.7457 32.6842 86.8279 32.8281 86.972 32.9516C87.1984 33.178 87.5481 33.3631 88.1243 33.3631C89.0502 33.3631 89.6675 32.7665 89.6675 31.7171V31.2028C89.5029 31.3468 89.2971 31.4908 89.0708 31.6143C88.6798 31.8406 88.0625 32.0257 87.3012 32.0257C85.0379 32.0257 83.0831 30.0506 83.0831 27.4993C83.0831 24.9481 85.0379 22.9729 87.3012 22.9729C88.1243 22.9729 88.8033 23.2404 89.2971 23.549C89.5852 23.7136 89.8527 23.8988 90.079 24.1045C90.3964 23.5331 90.9989 23.1787 91.6525 23.1787H92.9596V31.7171C92.9596 34.1861 91.0049 36.1408 88.1243 36.1408C86.1284 36.1408 84.9144 35.3177 84.256 34.4947ZM86.3753 27.4993C86.3753 28.5486 87.0955 29.2482 88.0214 29.2482C88.9473 29.2482 89.6675 28.5486 89.6675 27.4993C89.6675 26.45 88.9473 25.7505 88.0214 25.7505C87.0955 25.7505 86.3753 26.45 86.3753 27.4993Z" fill="white"/>
<path d="M71.9287 21.4527C71.9287 22.3049 71.2378 22.9958 70.3855 22.9958C69.5332 22.9958 68.8423 22.3049 68.8423 21.4527C68.8423 20.6004 69.5332 19.9095 70.3855 19.9095C71.2378 19.9095 71.9287 20.6004 71.9287 21.4527Z" fill="white"/>
</g>
<defs>
<filter id="filter0_f_4836_50" x="36.0807" y="21.2621" width="11.4215" height="8.1156" filterUnits="userSpaceOnUse" color-interpolation-filters="sRGB">
<feFlood flood-opacity="0" result="BackgroundImageFix"/>
<feBlend mode="normal" in="SourceGraphic" in2="BackgroundImageFix" result="shape"/>
<feGaussianBlur stdDeviation="0.676299" result="effect1_foregroundBlur_4836_50"/>
</filter>
<filter id="filter1_f_4836_50" x="36.0807" y="26.6725" width="10.8208" height="9.46814" filterUnits="userSpaceOnUse" color-interpolation-filters="sRGB">
<feFlood flood-opacity="0" result="BackgroundImageFix"/>
<feBlend mode="normal" in="SourceGraphic" in2="BackgroundImageFix" result="shape"/>
<feGaussianBlur stdDeviation="0.676299" result="effect1_foregroundBlur_4836_50"/>
</filter>
<clipPath id="clip0_4836_50">
<rect width="57" height="16.3172" fill="white" transform="translate(36 19.8666)"/>
</clipPath>
</defs>
</svg>
