<svg width="128" height="56" viewBox="0 0 128 56" fill="none" xmlns="http://www.w3.org/2000/svg">
<path d="M27.3764 19.0976C27.1026 19.0555 27.091 19.0505 27.2199 19.0309C27.4669 18.9933 28.05 19.0446 28.4518 19.1393C29.39 19.3603 30.2436 19.9266 31.1547 20.9323L31.3968 21.1995L31.7431 21.1443C33.202 20.9119 34.6861 21.0966 35.9276 21.6651C36.269 21.8215 36.8075 22.1328 36.8747 22.2128C36.8962 22.2383 36.9355 22.4024 36.9622 22.5775C37.0543 23.1834 37.0082 23.6478 36.8213 23.9947C36.7196 24.1834 36.7138 24.2432 36.7822 24.4048C36.8368 24.5337 36.9891 24.6291 37.1398 24.6289C37.4483 24.6285 37.7803 24.1341 37.9341 23.4463L37.9952 23.1731L38.1163 23.309C38.7804 24.0548 39.3019 25.0719 39.3916 25.7959L39.4149 25.9846L39.3032 25.813C39.1111 25.5178 38.9181 25.3167 38.6709 25.1546C38.2254 24.8624 37.7544 24.7629 36.5067 24.6978C35.38 24.6389 34.7422 24.5435 34.1099 24.3391C33.034 23.9914 32.4917 23.5283 31.2137 21.8661C30.6461 21.1278 30.2952 20.7194 29.9462 20.3904C29.1531 19.643 28.3739 19.251 27.3764 19.0976Z" fill="white" style="fill:white;fill-opacity:1;"/>
<path d="M37.1289 20.746C37.1572 20.2513 37.2249 19.925 37.361 19.627C37.4149 19.509 37.4653 19.4125 37.4731 19.4125C37.4809 19.4125 37.4574 19.4995 37.421 19.6059C37.3221 19.8951 37.3058 20.2907 37.374 20.7509C37.4605 21.3349 37.5097 21.4191 38.1323 22.0499C38.4244 22.3458 38.764 22.7189 38.8871 22.8791L39.111 23.1704L38.8871 22.9623C38.6134 22.7077 37.9836 22.2112 37.8446 22.1402C37.7513 22.0926 37.7374 22.0934 37.6799 22.1502C37.6269 22.2025 37.6157 22.2811 37.6084 22.6526C37.5969 23.2317 37.5173 23.6034 37.3251 23.975C37.2212 24.176 37.2048 24.1331 37.2988 23.9063C37.3691 23.7369 37.3762 23.6624 37.3756 23.1018C37.3746 21.9755 37.2397 21.7047 36.4486 21.2408C36.2483 21.1233 35.9181 20.9539 35.7149 20.8642C35.5117 20.7746 35.3503 20.6965 35.3562 20.6907C35.3786 20.6686 36.1501 20.8918 36.4606 21.0102C36.9225 21.1863 36.9987 21.2091 37.0549 21.1879C37.0924 21.1736 37.1106 21.0651 37.1289 20.746Z" fill="white" style="fill:white;fill-opacity:1;"/>
<path d="M27.9084 22.6728C27.3524 21.9141 27.0085 20.7509 27.0829 19.8813L27.106 19.6122L27.2325 19.6351C27.4701 19.678 27.8799 19.8292 28.0717 19.9447C28.5982 20.2617 28.8261 20.679 29.058 21.7507C29.126 22.0645 29.2151 22.4198 29.2561 22.54C29.3221 22.7336 29.5716 23.1857 29.7744 23.4793C29.9204 23.6908 29.8234 23.791 29.5005 23.7621C29.0073 23.718 28.3393 23.2609 27.9084 22.6728Z" fill="white" style="fill:white;fill-opacity:1;"/>
<path d="M36.4546 28.3195C33.8566 27.2825 32.9415 26.3824 32.9415 24.8638C32.9415 24.6403 32.9494 24.4575 32.9588 24.4575C32.9683 24.4575 33.0688 24.5312 33.1822 24.6214C33.709 25.0402 34.2989 25.2191 35.932 25.4553C36.8931 25.5943 37.4339 25.7066 37.9328 25.8706C39.5185 26.3919 40.4996 27.4498 40.7335 28.8908C40.8015 29.3095 40.7617 30.0946 40.6514 30.5085C40.5644 30.8354 40.2989 31.4246 40.2285 31.4471C40.209 31.4534 40.1898 31.3791 40.1848 31.2783C40.1581 30.7372 39.8822 30.2104 39.419 29.8158C38.8923 29.3672 38.1847 29.01 36.4546 28.3195Z" fill="white" style="fill:white;fill-opacity:1;"/>
<path d="M34.6307 28.7502C34.5982 28.5582 34.5417 28.313 34.5052 28.2053L34.439 28.0095L34.5621 28.1465C34.7325 28.336 34.8672 28.5787 34.9813 28.9018C35.0683 29.1485 35.0782 29.2217 35.0775 29.6225C35.0768 30.0159 35.0659 30.0984 34.9855 30.3204C34.8587 30.6704 34.7013 30.9186 34.4372 31.185C33.9626 31.6638 33.3525 31.9289 32.472 32.0389C32.319 32.058 31.8729 32.0902 31.4807 32.1103C30.4924 32.1613 29.8419 32.2666 29.2575 32.47C29.1735 32.4993 29.0985 32.5171 29.0908 32.5096C29.0672 32.4862 29.4651 32.251 29.7938 32.0941C30.2572 31.8728 30.7186 31.752 31.7524 31.5813C32.263 31.497 32.7902 31.3947 32.9242 31.3541C34.1888 30.9697 34.8388 29.9779 34.6307 28.7502Z" fill="white" style="fill:white;fill-opacity:1;"/>
<path d="M35.8216 30.8468C35.4765 30.1113 35.3972 29.4011 35.5863 28.7388C35.6066 28.668 35.639 28.6101 35.6586 28.6101C35.6782 28.6101 35.7596 28.6538 35.8396 28.707C35.9987 28.8132 36.3177 28.992 37.1676 29.4514C38.2282 30.0245 38.8329 30.4684 39.244 30.9755C39.6042 31.4196 39.8271 31.9254 39.9343 32.5421C39.9951 32.8915 39.9595 33.7322 39.869 34.084C39.5839 35.1933 38.9211 36.0646 37.9759 36.5731C37.8375 36.6476 37.7131 36.7086 37.6996 36.709C37.6862 36.7093 37.7366 36.5821 37.8118 36.4263C38.1298 35.7674 38.166 35.1264 37.9255 34.413C37.7784 33.9762 37.4782 33.4432 36.8723 32.5423C36.1677 31.495 35.995 31.2162 35.8216 30.8468Z" fill="white" style="fill:white;fill-opacity:1;"/>
<path d="M26.0634 34.8157C27.0275 34.0087 28.227 33.4355 29.3197 33.2595C29.7906 33.1837 30.5751 33.2137 31.0112 33.3244C31.7101 33.5017 32.3355 33.8989 32.6606 34.3721C32.9785 34.8346 33.1147 35.2376 33.2567 36.1343C33.3127 36.4881 33.3736 36.8432 33.392 36.9237C33.4986 37.3884 33.7061 37.7598 33.9632 37.9464C34.3715 38.2426 35.0745 38.2611 35.7662 37.9936C35.8836 37.9482 35.9855 37.9168 35.9927 37.9239C36.0178 37.9486 35.6694 38.1798 35.4237 38.3014C35.0932 38.4651 34.8303 38.5284 34.481 38.5284C33.8475 38.5284 33.3216 38.209 32.8827 37.5576C32.7964 37.4294 32.6023 37.0454 32.4514 36.7044C31.9881 35.6568 31.7593 35.3377 31.2214 34.9884C30.7531 34.6845 30.1494 34.6301 29.6951 34.8508C29.0985 35.1408 28.932 35.8967 29.3594 36.3757C29.5292 36.5661 29.8459 36.7302 30.1049 36.7621C30.5894 36.8219 31.0058 36.4565 31.0058 35.9716C31.0058 35.6568 30.8837 35.477 30.5763 35.3396C30.1567 35.1518 29.7054 35.3713 29.7076 35.7621C29.7086 35.9288 29.7817 36.0335 29.9503 36.1091C30.0585 36.1576 30.0609 36.1615 29.9727 36.1433C29.5876 36.0642 29.4974 35.6039 29.8071 35.2983C30.1789 34.9315 30.9477 35.0934 31.2117 35.5941C31.3225 35.8044 31.3355 36.2233 31.2388 36.4761C31.0223 37.0423 30.3913 37.3399 29.7512 37.1779C29.3153 37.0677 29.1379 36.9482 28.6124 36.4117C27.6994 35.4793 27.3449 35.2987 26.0286 35.095L25.7763 35.0559L26.0634 34.8157Z" fill="white" style="fill:white;fill-opacity:1;"/>
<path fill-rule="evenodd" clip-rule="evenodd" d="M21.7791 18.1282C24.8284 21.7969 26.9285 23.3105 27.1619 23.6303C27.3546 23.8944 27.2821 24.1318 26.9519 24.3178C26.7684 24.4213 26.3909 24.5261 26.202 24.5261C25.9882 24.5261 25.9149 24.4443 25.9149 24.4443C25.7909 24.3278 25.7211 24.3482 25.0847 23.2284C24.2012 21.8693 23.4618 20.7419 23.4416 20.723C23.395 20.6794 23.3958 20.6809 24.9946 23.5168C25.253 24.1079 25.046 24.3248 25.046 24.409C25.046 24.5803 24.9989 24.6703 24.7858 24.9059C24.4305 25.2988 24.2717 25.7403 24.1571 26.6539C24.0285 27.678 23.6671 28.4015 22.6656 29.6396C22.0794 30.3644 21.9835 30.4973 21.8355 30.7894C21.6492 31.1573 21.598 31.3633 21.5772 31.8279C21.5552 32.319 21.598 32.6363 21.7494 33.1059C21.8819 33.517 22.0202 33.7885 22.3738 34.3314C22.679 34.8 22.8547 35.1482 22.8547 35.2844C22.8547 35.3929 22.8756 35.3929 23.3485 35.2871C24.4802 35.0338 25.3992 34.5882 25.916 34.0422C26.2359 33.7042 26.3109 33.5176 26.3134 33.0545C26.315 32.7515 26.3042 32.6881 26.2216 32.5138C26.0872 32.2301 25.8424 31.9943 25.3028 31.6287C24.5959 31.1496 24.2939 30.7639 24.2105 30.2335C24.1421 29.7983 24.2215 29.4912 24.6126 28.6787C25.0174 27.8377 25.1177 27.4793 25.1855 26.6315C25.2294 26.0838 25.2901 25.8678 25.4488 25.6944C25.6144 25.5136 25.7634 25.4524 26.1731 25.3969C26.8411 25.3064 27.2665 25.1351 27.6161 24.8157C27.9194 24.5387 28.0463 24.2717 28.0658 23.8698L28.0806 23.5652L27.9111 23.3693C27.2973 22.6599 21.3681 17.5706 21.3303 17.5706C21.3222 17.5706 21.5242 17.8215 21.7791 18.1282ZM23.1993 32.3836C23.3381 32.14 23.2643 31.8268 23.0322 31.6738C22.8129 31.5292 22.4721 31.5973 22.4721 31.7856C22.4721 31.8431 22.5042 31.885 22.5765 31.9219C22.6982 31.984 22.707 32.0538 22.6113 32.1965C22.5143 32.3409 22.5221 32.468 22.6334 32.5543C22.8126 32.6934 23.0664 32.6169 23.1993 32.3836Z" fill="white" style="fill:white;fill-opacity:1;"/>
<path fill-rule="evenodd" clip-rule="evenodd" d="M28.5022 25.5567C28.1886 25.6522 27.8837 25.9816 27.7894 26.3271C27.7318 26.5378 27.7645 26.9075 27.8507 27.0217C27.99 27.2062 28.1247 27.2547 28.4895 27.2522C29.2036 27.2473 29.8244 26.9436 29.8966 26.564C29.9558 26.2529 29.6831 25.8217 29.3075 25.6324C29.1138 25.5348 28.7016 25.496 28.5022 25.5567ZM29.337 26.2038C29.4471 26.0487 29.3989 25.8811 29.2116 25.7677C28.8549 25.5518 28.3156 25.7304 28.3156 26.0644C28.3156 26.2307 28.5968 26.4121 28.8547 26.4121C29.0263 26.4121 29.2611 26.3107 29.337 26.2038Z" fill="white" style="fill:white;fill-opacity:1;"/>
<path d="M99.9879 37.6709V26.6022H101.59V27.8575C102.032 27.1402 102.882 26.4066 104.304 26.4066C106.43 26.4066 107.967 28.0857 107.967 30.6287C107.967 33.1717 106.43 34.8508 104.304 34.8508C102.849 34.8508 102.015 34.0845 101.606 33.4325V37.6709H99.9879ZM103.928 33.5629C105.514 33.5629 106.283 32.2425 106.283 30.6287C106.283 29.0149 105.514 27.6944 103.928 27.6944C102.342 27.6944 101.541 29.0475 101.541 30.6287C101.541 32.2099 102.342 33.5629 103.928 33.5629Z" fill="white" style="fill:white;fill-opacity:1;"/>
<path d="M93.9475 34.8508C92.4923 34.8508 91.1843 33.9704 91.1843 32.4707C91.1843 31.0037 92.2143 30.3352 93.9639 29.993L95.0756 29.7647C95.9422 29.5854 96.3509 29.4061 96.3509 28.7377C96.3509 28.0694 95.7951 27.5966 94.8141 27.5966C93.7513 27.5966 93.0645 28.2487 92.9992 29.3246L91.3314 29.1778C91.4459 27.4499 92.8357 26.4066 94.8304 26.4066C96.8905 26.4066 97.9859 27.401 97.9859 29.0964V34.6551H96.4327V33.7097H96.4164C96.0403 34.3291 95.2064 34.8508 93.9475 34.8508ZM94.3726 33.6933C95.5171 33.6933 96.4164 32.9435 96.4164 31.6068V30.6287C94.716 30.9058 93.9148 31.134 93.4243 31.4437C93.0482 31.672 92.8357 31.9979 92.8357 32.4381C92.8357 33.188 93.457 33.6933 94.3726 33.6933Z" fill="white" style="fill:white;fill-opacity:1;"/>
<path d="M80.7796 34.6553L78.2126 26.6025H79.9294L81.6952 32.6829H81.7116L83.5428 26.6025H85.1614L87.009 32.6666H87.0253L88.7911 26.6025H90.4753L87.9082 34.6553H86.2078L84.3766 28.4446H84.3603L82.4964 34.6553H80.7796Z" fill="white" style="fill:white;fill-opacity:1;"/>
<path d="M74.2509 34.8508C72.2398 34.8508 70.7682 33.9216 70.5884 31.9979L72.1908 31.8024C72.2725 33.0738 73.1718 33.6607 74.2836 33.6607C75.3791 33.6607 76.1148 33.1717 76.1148 32.3892C76.1148 31.6068 75.3627 31.4437 74.349 31.2155L73.1554 30.9384C71.8474 30.6287 70.9481 30.0093 70.9481 28.7703C70.9481 27.401 72.3052 26.4066 74.2182 26.4066C76.0657 26.4066 77.3246 27.3358 77.5372 28.8356L75.9186 29.0638C75.8041 28.102 75.1011 27.5966 74.1528 27.5966C73.1881 27.5966 72.5668 28.0694 72.5668 28.6888C72.5668 29.2756 72.9265 29.4876 73.9402 29.7158L75.1338 29.993C76.8342 30.3841 77.7334 30.9384 77.7334 32.2262C77.7334 33.8401 76.2293 34.8508 74.2509 34.8508Z" fill="white" style="fill:white;fill-opacity:1;"/>
<path d="M67.5742 34.6553V26.6024H69.193V34.6553H67.5742ZM67.5742 25.3473V23.44H69.193V25.3473H67.5742Z" fill="white" style="fill:white;fill-opacity:1;"/>
<path d="M58.5248 34.6551V26.6022H60.1271V27.7434H60.1435C60.6013 27.0424 61.5006 26.4066 62.7269 26.4066C64.5254 26.4066 65.5881 27.4825 65.5881 29.4387V34.6551H63.9694V30.1396C63.9694 28.6888 63.6425 27.7597 62.2854 27.7597C60.9283 27.7597 60.1435 28.8519 60.1435 30.1559V34.6551H58.5248Z" fill="white" style="fill:white;fill-opacity:1;"/>
<path d="M52.2301 34.8509C49.5487 34.8509 47.9137 33.3349 47.9137 30.5474V23.44H49.6141V30.4495C49.6141 32.259 50.4643 33.4327 52.2301 33.4327C54.1431 33.4327 54.8461 32.259 54.8461 30.4495V23.44H56.5466V30.5474C56.5466 33.3349 54.9116 34.8509 52.2301 34.8509Z" fill="white" style="fill:white;fill-opacity:1;"/>
</svg>
