<svg width="128" height="56" viewBox="0 0 128 56" fill="none" xmlns="http://www.w3.org/2000/svg">
<g clip-path="url(#clip0_4863_32)">
<path fill-rule="evenodd" clip-rule="evenodd" d="M47.2169 28.0146L47.2164 28.0143C45.3786 26.9676 41.7985 24.9284 41.7843 24.8485C41.7751 24.8 41.7659 24.7496 41.7563 24.6975L41.7561 24.6964C41.6114 23.9106 41.3961 22.7408 40.5563 22.117C39.9655 21.682 36.7719 20.2049 35.3057 19.5267C34.858 19.3197 34.5714 19.1871 34.569 19.1814C33.6104 17.7634 32.7611 16.2776 32.0277 14.7363C31.3313 15.2492 30.765 15.9122 30.3724 16.6738C29.9799 17.4354 29.7718 18.2752 29.7641 19.1282C27.2068 19.4869 24.8067 20.5505 22.8441 22.1946C27.9339 21.0531 29.3998 22.1055 29.3998 22.1055C27.7335 22.396 26.1277 22.9547 24.6479 23.7587C22.4783 24.9261 21.5 26.3278 21.5 26.3278C21.5 26.3278 26.4268 24.9491 30.2077 26.2904C28.4446 26.5338 26.8056 27.3179 25.5263 28.5302C33.363 29.4805 37.2277 36.1366 38.8538 41.5147C39.4516 31.9488 34.5851 28.316 34.5851 28.316C35.9982 28.4152 37.7756 29.4905 38.9126 31.0906C42.3362 30.7129 44.2612 31.722 44.2929 31.7471C44.298 31.7434 44.3763 31.718 44.5089 31.6749C45.0423 31.5017 46.4542 31.0433 47.516 30.5644C47.4 30.3933 46.9123 29.7996 46.6347 29.4675C46.6729 29.4704 47.7393 29.4086 48.2784 28.6222C48.2837 28.6222 47.8555 28.3783 47.2169 28.0146ZM37.487 24.3798C37.7399 24.3133 39.259 23.9138 39.7131 24.0822C40.1538 24.2447 40.1626 25.4724 40.1626 25.4724C40.1626 25.4724 39.1564 25.6104 37.4539 24.3884L37.4626 24.3862L37.4862 24.38L37.487 24.3798Z" fill="white"/>
<path fill-rule="evenodd" clip-rule="evenodd" d="M57.698 25.3091C55.9899 25.3091 54.2638 26.4859 54.2638 28.7206C54.2638 30.9551 55.9869 32.1188 57.6891 32.1188C59.3912 32.1188 61.1143 30.9522 61.1143 28.7206C61.1143 26.4889 59.3942 25.3091 57.698 25.3091ZM57.6861 30.7904C56.7454 30.7904 55.7928 30.0842 55.7928 28.7309C55.7928 27.3554 56.7514 26.636 57.698 26.636C58.8059 26.636 59.5794 27.4878 59.5794 28.7073C59.5794 30.0754 58.6267 30.7904 57.6861 30.7904Z" fill="white"/>
<path fill-rule="evenodd" clip-rule="evenodd" d="M91.2697 28.7206C91.2697 26.4859 92.9959 25.3091 94.704 25.3091C96.4004 25.3091 98.1188 26.4889 98.1188 28.7206C98.1188 30.9522 96.3973 32.1188 94.6953 32.1188C92.9928 32.1188 91.2697 30.9551 91.2697 28.7206ZM92.7987 28.7309C92.7987 30.0842 93.7498 30.7904 94.6922 30.7904C95.6331 30.7904 96.5842 30.0754 96.5842 28.7073C96.5842 27.4878 95.8107 26.636 94.704 26.636C93.7575 26.636 92.7987 27.3554 92.7987 28.7309Z" fill="white"/>
<path d="M65.0455 32.0952H64.6752L64.6498 32.0452L61.3604 25.4797H63.076L64.8782 29.487L66.682 25.4797H68.3588L65.0455 32.0952Z" fill="white"/>
<path fill-rule="evenodd" clip-rule="evenodd" d="M68.5963 28.7088C68.5963 30.7801 69.9162 32.1188 71.9604 32.1188C73.1262 32.1188 73.9971 31.7687 74.6928 31.011L74.7463 30.9522L73.9208 29.971L73.8508 30.0401C73.6211 30.2801 73.343 30.4704 73.0346 30.5988C72.726 30.7272 72.3938 30.7909 72.0589 30.7859C70.9465 30.7859 70.2895 30.2152 70.1402 29.1324H75.0167V28.6926C75.0167 26.6331 73.8101 25.3091 71.8976 25.3091C69.9849 25.3091 68.5963 26.7389 68.5963 28.7088ZM73.4697 28.038H70.1686C70.3686 27.1464 71.0077 26.5771 71.8827 26.5771C72.7577 26.5771 73.3328 27.1082 73.4697 28.038Z" fill="white"/>
<path d="M88.237 32.0954H87.8565L86.19 28.1249L84.5236 32.0954H84.1296L81.4461 25.4799H83.0796L84.4309 29.1591L86.0046 25.4431H86.3975L88.0073 29.1591L89.3226 25.4799H90.9458L88.237 32.0954Z" fill="white"/>
<path d="M80.1731 25.4902H80.237C80.237 25.4902 80.5341 26.5773 80.6521 27.0437C80.1402 26.9187 79.3652 27.0672 78.8054 27.3908C78.2003 27.741 77.8676 28.2529 77.8676 28.887V31.9616H76.3742V25.4785H77.8166L77.8481 26.7009C78.0963 26.3184 78.4413 26.0058 78.8486 25.7936C79.256 25.5814 79.7122 25.4769 80.1731 25.4902Z" fill="white"/>
<path d="M104.575 31.9616H103.082V26.7701H101.756L102.098 25.4784H103.082V25.1224C103.082 23.6072 103.963 22.7025 105.441 22.7025C106.043 22.6925 106.632 22.8713 107.124 23.213L107.193 23.2615L106.53 24.3707L106.446 24.3031C106.194 24.0876 105.871 23.9709 105.537 23.975C104.926 23.975 104.575 24.3722 104.575 25.0666V25.4829H106.731V26.7745H104.575V31.9616Z" fill="white"/>
<path d="M99.2955 31.9615H100.789V22.8598H99.2955V31.9615Z" fill="white"/>
</g>
<defs>
<clipPath id="clip0_4863_32">
<rect width="86" height="25.7485" fill="white" transform="translate(21.5 15.2515)"/>
</clipPath>
</defs>
</svg>
