<svg width="128" height="56" viewBox="0 0 128 56" fill="none" xmlns="http://www.w3.org/2000/svg">
<path d="M32.902 25.084C31.2113 25.084 30.383 26.5024 30.383 28.3969V33.1444H28V23.1265H30.3405V25.7257H30.3811C30.8817 24.1273 31.8781 22.8367 33.4148 22.8367C34.4953 22.8367 34.9515 23.1958 34.9515 23.1958L33.8748 25.2595C33.8748 25.2577 33.5329 25.084 32.902 25.084ZM61.7055 26.4592V33.1435H59.3839V27.2728C59.3839 25.588 58.8294 24.6952 57.4117 24.6952C55.9449 24.6952 55.2347 25.8238 55.2347 27.9892V33.1426H52.9348V27.2728C52.9348 25.6528 52.387 24.6952 50.9835 24.6952C49.3825 24.6952 48.7658 26.0326 48.7658 27.9892V33.1426H46.4253V23.1256H48.7658V25.3945H48.7866C49.1511 23.8249 50.1467 22.8565 51.826 22.8565C53.4921 22.8565 54.5773 23.7088 54.9891 25.2208C55.3811 23.7655 56.4247 22.8556 58.0285 22.8556C60.267 22.8556 61.7055 24.193 61.7055 26.4592ZM39.6344 22.8358C37.4809 22.8358 36.0708 23.7997 35.4285 25.5403L37.411 26.227C37.7718 25.1776 38.5255 24.58 39.6759 24.58C40.9699 24.58 41.7302 25.1227 41.7302 25.9552C41.7302 26.8075 41.1257 26.9857 39.7581 27.1963C38.2374 27.4294 34.6228 27.5059 34.6228 30.412C34.6228 32.1148 36.117 33.3955 38.3612 33.3955C40.0481 33.3955 41.1975 32.7385 41.7293 31.5154H41.75V33.1444H44.0707V26.9812C44.0707 24.2857 42.6464 22.8358 39.6344 22.8358ZM41.7907 28.4284C41.7907 30.529 40.6998 31.8781 38.9572 31.8781C37.7236 31.8781 36.985 31.2193 36.985 30.2689C36.985 29.3779 37.7444 28.7587 39.2027 28.504C40.695 28.243 41.4459 27.9208 41.7907 27.1477V28.4284ZM69.9613 22.8556C68.1857 22.8556 67.0135 23.7853 66.5111 25.1821V23.1265H64.0459V37H66.4903V31.0888H66.5111C67.0551 32.6017 68.1876 33.4342 69.9613 33.4342C72.775 33.4342 74.7877 31.2256 74.7877 28.1053C74.7877 25.0066 72.775 22.8556 69.9613 22.8556ZM69.355 31.5748C67.4065 31.5748 66.3259 30.2275 66.3259 28.135C66.3259 26.0425 67.5349 24.6952 69.355 24.6952C71.1741 24.6952 72.3849 26.1082 72.3849 28.135C72.3849 30.1627 71.176 31.5748 69.355 31.5748ZM99 33.0985V33.1615L89.4605 33.1642V33.0985C90.8367 32.3578 91.7859 31.6045 92.6407 30.8161H96.5575L99 33.0985ZM96.6369 21.259L94.2189 19H94.1481C94.1481 19 94.1887 23.212 90.1292 27.0424C86.1567 30.7918 81.4852 30.7999 81.4852 30.7999V30.8656L83.9484 33.1651C83.9484 33.1651 88.5519 33.2083 92.619 29.4076C96.6709 25.6186 96.6369 21.259 96.6369 21.259Z" fill="white" style="fill:white;fill-opacity:1;"/>
</svg>
