<svg width="128" height="56" viewBox="0 0 128 56" fill="none" xmlns="http://www.w3.org/2000/svg">
<path d="M20.0788 25.6043C20.0788 24.1741 19.3543 22.9924 18 22H21.1478C21.7027 22.4226 22.1523 22.9679 22.4614 23.5932C22.7705 24.2185 22.9308 24.9068 22.9297 25.6043C22.9308 26.3018 22.7705 26.9901 22.4614 27.6154C22.1523 28.2407 21.7027 28.7859 21.1478 29.2086C22.1699 29.6347 22.7513 30.6749 22.7513 32.1635V35H19.9011V32.1635C19.9011 30.7456 19.2243 29.7532 18.0007 29.2093C19.355 28.2161 20.0795 27.0352 20.0795 25.605L20.0788 25.6043ZM26.2559 25.6043C26.2559 24.1741 25.5314 22.9924 24.1771 22H27.3256C27.8804 22.4227 28.3299 22.968 28.6389 23.5933C28.9479 24.2186 29.108 24.9068 29.1068 25.6043C29.108 26.3017 28.9479 26.99 28.6389 27.6153C28.3299 28.2406 27.8804 28.7859 27.3256 29.2086C28.347 29.6347 28.9292 30.6749 28.9292 32.1635V35H26.0782V32.1635C26.0782 30.7456 25.4007 29.7532 24.1771 29.2093C25.5314 28.2161 26.2559 27.0352 26.2559 25.605V25.6043ZM32.4345 25.6043C32.4345 24.1741 31.71 22.9924 30.3557 22H33.5035C34.0584 22.4226 34.508 22.9679 34.8171 23.5932C35.1263 24.2185 35.2865 24.9068 35.2854 25.6043C35.2865 26.3018 35.1263 26.9901 34.8171 27.6154C34.508 28.2407 34.0584 28.7859 33.5035 29.2086C34.5256 29.6347 35.107 30.6749 35.107 32.1635V35H32.2561V32.1635C32.2561 30.7456 31.5793 29.7532 30.3557 29.2093C31.71 28.2161 32.4345 27.0352 32.4345 25.605V25.6043ZM43.9682 32.6381H41.8071V24.3634H47.1175C49.6715 24.3634 50.9305 25.3096 50.9305 26.8575C50.9305 27.9092 50.3129 28.7008 49.1608 29.1031C50.3483 29.2801 50.8828 29.9063 50.8828 31.0295V32.6366H48.6971V31.1241C48.6971 30.1779 48.2219 29.8001 46.9744 29.8001H43.9697V32.6381H43.9682ZM46.9976 25.5689H43.9682V28.5953H46.9737C48.0666 28.5953 48.7434 27.9922 48.7434 27.0467C48.7434 26.1128 48.115 25.5689 46.9976 25.5689ZM54.6836 24.3634H52.5217V32.6381H54.6836V24.3634ZM61.3121 29.9417H58.675V32.6366H56.5124V24.3634H61.3591C63.9132 24.3634 65.2559 25.4273 65.2559 27.1298C65.2559 28.89 63.89 29.9417 61.3121 29.9417ZM61.2645 25.5689H58.675V28.7362H61.2406C62.3573 28.7362 63.0464 28.1692 63.0464 27.1413C63.0464 26.1366 62.3573 25.5689 61.2645 25.5689ZM71.3384 29.9417H68.7013V32.6366H66.5387V24.3634H71.3854C73.9394 24.3634 75.2822 25.4273 75.2822 27.1298C75.2822 28.89 73.9156 29.9417 71.3384 29.9417ZM71.2908 25.5689H68.7013V28.7362H71.2669C72.3836 28.7362 73.0727 28.1692 73.0727 27.1413C73.0727 26.1366 72.3836 25.5689 71.2908 25.5689ZM78.7269 24.3634V31.4073H84.1203V32.6381H76.565V24.3634H78.7269ZM87.635 24.3634H85.4732V32.6381H87.635V24.3634ZM90.8904 27.1291V32.6381H89.4646V24.3634H91.0818L96.9737 29.8709V24.3634H98.3995V32.6381H96.7837L90.8904 27.1291ZM105.456 25.3327C103.401 25.3327 102.059 26.6328 102.059 28.5708C102.059 30.4849 103.341 31.6673 105.337 31.6673H105.479C106.157 31.6673 106.917 31.525 107.618 31.3011V29.067H104.126V27.8853H109.732V31.7735C108.569 32.3766 106.81 32.8497 105.385 32.8497H105.195C101.916 32.8497 99.8015 31.1234 99.8015 28.6177C99.8015 26.1359 101.976 24.151 105.313 24.151H105.503C106.894 24.151 108.485 24.588 109.662 25.2735L109.043 26.2775C107.987 25.6989 106.727 25.3327 105.599 25.3327H105.456Z" fill="white" style="fill:white;fill-opacity:1;"/>
</svg>
