<svg width="128" height="56" viewBox="0 0 128 56" fill="none" xmlns="http://www.w3.org/2000/svg">
<g clip-path="url(#clip0_103_16)">
<mask id="mask0_103_16" style="mask-type:luminance" maskUnits="userSpaceOnUse" x="31" y="21" width="67" height="14">
<path d="M97.9581 21.625H31.2408V34.1875H97.9581V21.625Z" fill="white"/>
</mask>
<g mask="url(#mask0_103_16)">
<path d="M44.6199 27.9062L45.2323 27.2938C46.1797 26.3464 47.4674 25.8125 48.8126 25.8125H53.8166C56.125 25.8125 57.9989 27.6864 57.9989 29.9948C57.9989 32.3136 56.125 34.1875 53.8114 34.1875H39.3855V32.0938H53.8114C54.9682 32.0938 55.9052 31.1568 55.9052 30C55.9052 28.8432 54.9682 27.9062 53.8114 27.9062H44.6199ZM35.4283 27.9062C34.2715 27.9062 33.3345 26.9693 33.3345 25.8125C33.3345 24.6557 34.2715 23.7188 35.4283 23.7188H49.8542V21.625H35.4283C33.1147 21.625 31.2408 23.4989 31.2408 25.8125C31.2408 28.1261 33.1147 30 35.4283 30H40.4271C41.7671 30 43.0548 29.4661 44.0074 28.5187L44.6199 27.9062H35.4283Z" fill="white"/>
<path d="M67.672 28.2831C67.9599 28.6234 68.1065 29.084 68.1065 29.665C68.1065 30.1675 67.9599 30.6124 67.6616 30.9945C67.3684 31.3766 66.9654 31.675 66.4629 31.8791C65.9604 32.0885 65.4003 32.1932 64.7879 32.1932C63.6939 32.1932 62.8145 31.942 62.1498 31.4395C61.485 30.937 61.15 30.2355 61.1395 29.3352H62.4848C62.5057 29.8377 62.7308 30.2512 63.1495 30.5653C63.5683 30.8846 64.1179 31.0416 64.7827 31.0416C65.3741 31.0416 65.8505 30.9265 66.2221 30.6909C66.5885 30.4554 66.7717 30.1466 66.7717 29.7645C66.7717 29.4347 66.6827 29.1834 66.51 29.0107C66.3373 28.838 66.1069 28.7176 65.8295 28.6495C65.5521 28.5815 65.1543 28.5187 64.6413 28.4506C63.919 28.3616 63.3275 28.2465 62.8669 28.1052C62.4062 27.9638 62.0346 27.7335 61.7519 27.4247C61.4693 27.1106 61.3227 26.6814 61.3227 26.137C61.3227 25.645 61.4641 25.2053 61.7415 24.8232C62.0189 24.4411 62.401 24.1427 62.8826 23.9281C63.3641 23.7135 63.9085 23.6088 64.5105 23.6088C65.4945 23.6088 66.2954 23.8391 66.9183 24.2998C67.5359 24.7604 67.8814 25.4147 67.9442 26.2679H66.599C66.5466 25.8282 66.332 25.467 65.9604 25.1844C65.5887 24.9017 65.1229 24.7552 64.5628 24.7552C64.0027 24.7552 63.5316 24.8703 63.1809 25.1059C62.8302 25.3414 62.6575 25.6502 62.6575 26.0323C62.6575 26.315 62.7412 26.5348 62.9035 26.6866C63.0658 26.8384 63.2804 26.9431 63.5369 27.0007C63.7934 27.053 64.1859 27.1159 64.7094 27.1839C65.4422 27.2729 66.0494 27.3933 66.5257 27.5451C67.002 27.6969 67.3841 27.9429 67.6773 28.2831H67.672ZM71.2209 24.9488H73.3409V23.7188H71.2209V21.625H69.8757V23.7188H68.363V24.9488H69.8757V29.9058C69.8757 30.6595 70.0432 31.2144 70.3782 31.5651C70.7132 31.9158 71.2733 32.0885 72.0637 32.0885H73.6078V30.8584H71.2262V24.9488H71.2209ZM85.9295 24.818C86.521 24.818 87.0235 24.975 87.4423 25.2943C87.8558 25.6136 88.1332 26.0376 88.2641 26.5767H89.625C89.4627 25.6555 89.0597 24.9331 88.4159 24.4097C87.772 23.8863 86.9607 23.6193 85.9766 23.6193C85.1653 23.6193 84.4482 23.7973 83.8253 24.1532C83.2024 24.5091 82.7156 25.0116 82.3701 25.6555C82.0247 26.2993 81.8519 27.0478 81.8519 27.8905C81.8519 28.7333 82.0194 29.4818 82.3597 30.1309C82.6999 30.7799 83.1762 31.2877 83.7887 31.6488C84.4011 32.01 85.113 32.1932 85.9243 32.1932C86.9188 32.1932 87.7406 31.9263 88.3897 31.3976C89.0335 30.8689 89.447 30.1361 89.6198 29.2044H88.2745C88.1541 29.7645 87.8872 30.1989 87.4684 30.5182C87.0497 30.8375 86.5367 30.9945 85.9243 30.9945C85.1234 30.9945 84.4744 30.7066 83.9771 30.1309C83.4798 29.5551 83.2286 28.8066 83.2286 27.8905C83.2286 26.9745 83.4798 26.2417 83.9771 25.6712C84.4744 25.1006 85.1234 24.818 85.9243 24.818H85.9295ZM97.0264 24.5405C96.4035 23.9281 95.5817 23.6193 94.561 23.6193C93.9067 23.6193 93.3466 23.7554 92.8965 24.0276C92.4411 24.2998 92.0799 24.6557 91.8025 25.0954V21.625H90.4573V32.0938H91.8025V27.9062C91.8025 26.9641 92.0276 26.2208 92.483 25.6712C92.9383 25.1216 93.5508 24.8494 94.3307 24.8494C95.0635 24.8494 95.6288 25.0745 96.0214 25.5298C96.414 25.9852 96.6129 26.6448 96.6129 27.5084V32.0885H97.9581V27.4247C97.9581 26.1109 97.6441 25.1477 97.0212 24.5353L97.0264 24.5405ZM79.3918 24.9488H81.5117V23.7188H79.3918V21.625H78.0466V23.7188H76.5338V24.9488H78.0466V29.9058C78.0466 30.6595 78.2141 31.2144 78.5491 31.5651C78.8841 31.9158 79.4441 32.0885 80.2345 32.0885H81.7787V30.8584H79.397V24.9488H79.3918ZM74.2621 22.9702H75.6073V21.625H74.2621V22.9702ZM74.2621 32.0938H75.6073V23.7188H74.2621V32.0938Z" fill="white"/>
</g>
</g>
<defs>
<clipPath id="clip0_103_16">
<rect width="67" height="12.5625" fill="white" transform="translate(31 21.625)"/>
</clipPath>
</defs>
</svg>
